<?xml version="1.0" standalone="no"?>
<!DOCTYPE svg PUBLIC "-//W3C//DTD SVG 20010904//EN"
 "http://www.w3.org/TR/2001/REC-SVG-20010904/DTD/svg10.dtd">
<svg version="1.0" xmlns="http://www.w3.org/2000/svg"
 width="736.000000pt" height="680.000000pt" viewBox="0 0 736.000000 680.000000"
 preserveAspectRatio="xMidYMid meet">

<g transform="translate(0.000000,680.000000) scale(0.100000,-0.100000)"
fill="#000000" stroke="none">
<path d="M1934 6478 c8 -123 34 -236 75 -325 l29 -62 31 12 c35 13 37 22 16
91 -22 71 -20 73 29 23 69 -71 89 -78 218 -75 l112 3 -61 38 c-134 82 -321
242 -418 357 l-38 45 7 -107z"/>
<path d="M2501 6013 c-20 -4 -9 -13 75 -60 184 -103 380 -239 494 -341 l45
-40 -85 24 c-96 28 -234 40 -332 30 l-66 -7 85 -82 c87 -83 154 -168 192 -244
30 -60 27 -64 -25 -42 -78 35 -231 68 -370 81 -238 21 -507 -14 -777 -102 -71
-23 -127 -43 -125 -45 2 -2 49 9 103 25 316 93 636 110 889 46 104 -27 236
-77 281 -107 l30 -21 -55 6 c-118 13 -309 18 -394 11 l-90 -7 113 -54 c197
-94 358 -215 424 -321 15 -24 27 -45 27 -49 0 -3 -22 10 -49 30 -67 49 -181
102 -276 127 -104 28 -386 37 -517 16 -49 -7 -88 -9 -88 -5 0 11 126 91 172
109 l38 15 -130 64 -129 64 -118 -12 c-65 -7 -163 -22 -218 -33 -119 -24 -337
-80 -332 -86 2 -2 69 2 148 8 79 6 185 8 234 4 117 -8 245 -26 245 -34 -1 -3
-15 -15 -32 -26 -33 -21 -95 -92 -87 -99 2 -3 38 -12 79 -20 41 -9 108 -32
150 -52 l75 -36 -25 -16 c-14 -9 -44 -35 -68 -57 l-43 -40 67 3 c155 8 439
-38 641 -104 220 -72 493 -224 669 -372 l71 -60 -4 47 c-27 269 -138 549 -284
715 -22 25 -39 46 -36 46 14 0 122 -42 172 -68 64 -32 207 -134 239 -171 29
-33 36 -11 36 122 l0 118 61 -42 c232 -157 499 -418 696 -679 69 -92 82 -105
87 -87 8 32 6 313 -3 377 -5 30 -8 56 -6 57 1 2 39 -10 86 -25 46 -16 97 -32
113 -36 l28 -7 -39 55 c-58 82 -197 246 -313 371 -56 60 -98 111 -93 112 4 2
69 -5 143 -16 74 -10 136 -18 137 -17 8 6 -167 207 -271 311 -354 352 -821
609 -1274 701 -122 25 -335 40 -391 27z m494 -110 c265 -69 538 -209 775 -399
87 -69 330 -309 330 -325 0 -5 -72 -9 -161 -9 l-161 0 62 -67 c81 -89 178
-235 234 -353 49 -105 128 -326 124 -348 -2 -7 -34 26 -73 75 -85 107 -321
350 -430 443 -178 151 -382 286 -555 369 l-75 36 110 6 c61 4 173 7 250 8 144
1 215 8 215 21 0 4 -28 35 -62 70 -121 122 -319 257 -594 404 -88 47 -166 90
-174 96 -23 16 68 3 185 -27z"/>
<path d="M1410 5679 c-92 -51 -125 -73 -172 -118 l-38 -35 0 -86 c0 -147 -28
-203 -129 -258 -35 -19 -232 -92 -438 -162 -206 -70 -387 -136 -401 -147 -39
-29 -41 -79 -4 -152 32 -64 113 -191 122 -191 3 0 18 51 34 113 16 61 33 126
38 143 8 30 21 37 261 139 357 152 487 216 529 257 42 43 58 97 58 200 0 56 6
85 25 125 23 51 110 148 170 191 45 32 28 26 -55 -19z"/>
<path d="M1745 5643 c-35 -19 -151 -107 -247 -187 -72 -61 -74 -61 -93 13
l-12 46 -13 -40 c-18 -50 -18 -153 -1 -183 l12 -23 52 48 c131 122 256 213
328 238 40 14 51 14 122 0 43 -9 101 -25 128 -35 27 -11 49 -18 49 -17 0 2
-28 27 -63 55 -117 95 -196 120 -262 85z"/>
<path d="M1592 5367 c-18 -7 -49 -28 -69 -47 -40 -39 -78 -113 -62 -119 17 -5
128 19 188 41 69 26 160 107 136 121 -27 15 -157 18 -193 4z"/>
<path d="M1570 5170 c-8 -5 -10 -10 -5 -10 6 0 17 5 25 10 8 5 11 10 5 10 -5
0 -17 -5 -25 -10z"/>
<path d="M2290 4403 c-95 -15 -192 -42 -300 -83 -228 -87 -397 -114 -710 -115
-189 0 -339 9 -328 20 2 2 39 11 83 20 87 18 245 69 285 92 l25 14 -30 -6
c-16 -4 -77 -18 -134 -31 -230 -52 -442 -52 -607 0 l-77 25 44 -45 c58 -60
124 -93 234 -115 155 -31 323 -41 560 -34 326 9 464 -10 621 -85 105 -50 221
-156 261 -238 24 -48 28 -69 27 -132 -1 -104 -32 -174 -165 -376 -60 -91 -118
-183 -129 -204 -36 -70 -52 -166 -48 -273 l5 -97 -31 -9 c-17 -5 -209 -53
-427 -107 l-396 -98 -83 -193 -82 -193 11 -508 12 -507 116 -193 c64 -107 122
-196 129 -199 8 -3 271 58 586 136 315 77 657 160 760 185 l188 45 97 -66
c421 -286 978 -319 1662 -98 59 19 111 35 115 35 3 0 -34 -61 -84 -135 -49
-74 -90 -136 -90 -138 0 -3 30 7 68 20 616 228 1363 309 1945 212 225 -38 467
-110 645 -194 l93 -44 -22 32 c-39 55 -182 190 -259 243 -264 181 -553 269
-948 287 l-53 2 76 90 76 90 -183 3 c-362 6 -797 -65 -1192 -193 -60 -19 -110
-34 -112 -32 -2 1 27 38 63 81 37 43 62 77 57 75 -297 -126 -554 -201 -844
-246 -178 -27 -551 -25 -724 5 -72 12 -132 24 -134 27 -5 5 -97 -18 1503 376
2105 518 2165 533 2165 540 0 4 -56 101 -125 216 l-125 210 -1 374 c-1 206 -5
505 -8 665 l-6 290 -550 -134 c-844 -206 -3768 -922 -3787 -928 -16 -5 -16 -2
-4 33 25 70 73 156 132 238 109 150 167 240 205 319 22 44 39 71 39 60 0 -33
-48 -199 -85 -295 -19 -51 -34 -93 -32 -95 7 -7 134 59 192 100 149 107 265
292 311 496 9 38 21 70 26 70 38 0 142 -86 175 -145 16 -28 21 -18 39 66 15
70 14 146 -3 229 l-5 30 49 0 c68 0 193 -33 280 -75 l73 -34 -21 42 c-34 67
-102 158 -157 209 -59 55 -171 130 -230 154 -23 9 -42 20 -42 24 0 12 69 70
83 70 25 1 -101 60 -190 90 -135 44 -246 60 -397 59 -72 -1 -142 -3 -156 -6z
m275 -158 c227 -18 460 -129 575 -276 18 -22 30 -42 27 -45 -3 -3 -27 6 -54
20 -80 40 -168 59 -278 59 -55 0 -114 -3 -131 -7 l-30 -7 17 -67 c49 -187 -2
-365 -148 -511 -40 -41 -76 -71 -79 -68 -3 3 6 41 20 86 66 209 60 374 -19
532 -45 88 -142 190 -228 239 -32 18 -55 35 -52 38 8 8 199 19 260 16 28 -2
82 -6 120 -9z m3202 -788 c39 -22 66 -65 59 -95 -4 -15 -8 -43 -10 -62 -4 -44
-35 -120 -140 -340 -79 -164 -106 -234 -120 -305 l-6 -30 20 35 c28 50 25 28
-15 -110 -62 -216 -210 -573 -246 -596 -9 -5 -10 -2 -5 11 7 18 35 182 54 313
7 53 6 65 -6 69 -10 4 -13 16 -8 43 3 20 10 92 16 161 12 149 47 362 65 406 9
20 12 50 8 86 -5 49 -3 56 16 66 47 26 23 34 -81 26 -115 -7 -115 -7 -18 54
66 42 69 48 13 32 -28 -8 -31 -7 -30 9 1 20 130 86 260 135 37 14 86 36 108
51 33 21 38 28 29 40 -16 18 5 19 37 1z m-784 -324 c19 -66 37 -181 37 -235 0
-42 -15 -51 -26 -15 -5 17 -12 2 -26 -63 -20 -97 -54 -187 -77 -212 -23 -23
-233 -104 -375 -143 -146 -40 -260 -100 -270 -143 -4 -15 -10 -36 -13 -47 -4
-16 0 -15 26 9 18 18 31 24 31 16 0 -25 -260 -483 -292 -515 -20 -19 3 128 48
305 37 148 45 198 51 323 8 137 4 176 -12 126 -4 -11 -9 -19 -11 -16 -7 6 83
353 104 400 15 34 17 48 9 56 -9 9 -8 14 3 21 12 8 11 13 -8 33 l-23 24 46 12
c25 6 48 18 51 25 4 10 16 13 39 9 18 -3 73 4 121 15 102 24 257 48 359 57 70
6 70 6 40 -11 -47 -27 -16 -27 60 0 39 14 75 25 81 25 6 1 19 -25 27 -56z
m-2368 -578 c135 -28 245 -60 245 -71 0 -7 10 -14 23 -18 12 -3 36 -17 52 -30
l30 -25 -50 -1 c-35 0 -46 -3 -35 -10 8 -5 12 -11 10 -13 -8 -7 -753 -483
-775 -494 -17 -10 -8 -17 75 -58 52 -25 120 -53 150 -62 30 -8 63 -22 74 -29
16 -11 6 -12 -60 -7 l-79 6 57 -44 c80 -62 353 -399 330 -407 -31 -10 -457
124 -555 175 l-52 27 30 7 c17 4 48 7 70 8 46 2 53 -8 -65 86 -34 28 -75 61
-91 74 l-29 23 -9 -23 c-5 -13 -49 -109 -98 -214 -49 -104 -105 -227 -123
-272 -19 -46 -35 -81 -36 -80 -6 6 28 244 50 359 14 68 27 144 30 171 3 26 9
67 12 92 5 39 3 45 -13 45 -11 0 -27 6 -36 13 -15 11 -15 17 -2 67 8 30 20 96
25 145 5 50 21 136 35 193 30 124 32 177 8 191 -17 10 -16 12 7 31 23 18 23
20 5 20 -12 0 3 13 40 34 33 19 59 39 57 45 -1 7 16 11 45 11 27 0 86 3 132 7
68 5 83 4 76 -7 -6 -10 -1 -12 23 -7 38 8 39 3 8 -38 -14 -18 -34 -60 -46 -95
-12 -35 -34 -88 -50 -119 -32 -63 -110 -288 -110 -315 0 -13 21 2 73 50 39 38
128 115 197 170 121 98 272 251 234 238 -15 -5 -14 -3 4 10 28 21 28 38 1 62
-11 10 -25 27 -31 38 -9 16 -7 18 6 13 47 -19 49 -17 16 17 l-35 37 45 -7 c25
-3 72 -12 105 -19z m926 -278 c-11 -14 19 -12 105 8 28 6 31 5 29 -16 -1 -12
-14 -33 -29 -46 l-27 -23 30 0 c17 0 31 -3 31 -7 0 -10 -209 -116 -275 -140
-27 -10 -54 -20 -59 -22 -5 -2 -6 4 -3 13 5 13 2 15 -21 10 -56 -14 -132 -46
-174 -74 l-43 -29 -3 24 c-4 30 18 73 77 152 49 66 63 75 156 104 33 10 85 27
115 38 66 24 108 28 91 8z m-1847 -1236 c-4 -17 -9 -30 -11 -27 -3 2 -2 19 2
36 9 41 17 33 9 -9z"/>
<path d="M4625 2918 c-71 -11 -131 -21 -132 -21 -6 -6 -160 -363 -157 -366 7
-8 168 86 255 149 52 38 97 63 100 58 10 -15 108 20 136 48 19 19 23 33 23 89
l0 65 -47 -1 c-27 -1 -106 -11 -178 -21z"/>
</g>
</svg>
